<svg clip-rule="evenodd" fill-rule="evenodd" height="65.5301mm" image-rendering="optimizeQuality" shape-rendering="geometricPrecision" text-rendering="geometricPrecision" viewBox="0 0 25617.88 6585.34" width="254.921mm" xmlns="http://www.w3.org/2000/svg"><path d="m20492.72 2855.45 1183.6 14.93-992 3714.96 1654.36-4.39 1015.41-3707.63c372.77-1.62 533.79-3.23 906.56-4.86 893.6-90.12 1363.15-895.55 1357.16-1385l-5273.52 5.7c231.85 527.07 286.48 785.93 148.43 1366.3z" fill="#757475"/><path d="m135.72 4759.9c500.3-1924.41 2288.99-3254.26 3985.52-3254.26h3858.18l410.08-1497.18-4110.62-5.4c-2582.07-106.03-4866.85 2565.37-4143.16 4756.83z" fill="#f08519"/><g fill="#757475"><path d="m18689.22 4076.44c745.25-342.6 1105.76-1001.06 1120.84-1548.29 10.04-371.33-121.35-589.4-286.27-740.57-272.84-250.09-592.18-288.78-1215.11-284.28l-3429.6.1c-817.93 3016.55-551.13 2028.54-1363.04 5045.1h3980.18c337.38 0 1244.84-218.44 1604.05-1224.36 181.34-507.8-12.97-958.76-411.06-1247.71zm-3283.15 559.47 2088.87-.55c488.69 4.23 311.46 665.6-174.57 663.41-774.28-3.52-1318.44-1.97-2094.19 0l179.89-662.85zm293.62-1086.86 2088.59.51c490.96-4.23 671.04-665.6 183.81-663.39-776.14 3.5-1319.48 1.95-2094.16 0l-178.25 662.87z"/><path d="m10380.97 1498.68-762.2 2821.33c-164.58 609.19 81.87 857.55 435.92 916.8 216.66 36.27 484.19 23.36 713.44 23.36 383.45 0 929.17-270.36 1110.12-940.17l762.19-2821.33h1524.62l-791.09 2928.34c-390.18 1444.32-1487.16 2073.24-2381.71 2109.06-216.89 8.67-640.37 12.43-877.18 12.43-74.89 0-567.41-7.68-638.77-3.8-1008.93 54.93-1795.05-662.2-1423.1-2039.07l812.33-3006.96h1515.43z" fill-rule="nonzero"/><path d="m2281.95 6547.86 4361.82-9.96 1087.87-4061.04c-2584.47 8.53-1357.26-1.45-3478.77-1.45-255.86 0-680.59 84.91-946.87 699.95l-173.71 648.49 2257.48 9.61-313.01 1168.46h-1890.37c-1290.08 58.3-1589.09-1246.94-1101.96-2185.62-1791.57 1133.4-1823.12 3651.04 197.52 3731.56z"/></g></svg>