<svg height="512" width="512" xmlns="http://www.w3.org/2000/svg"><path d="m0 0c.91082075-.00085442 1.8216415-.00170885 2.76006287-.00258917 3.05242641-.0016473 6.10479789.00385435 9.15721923.0093183 2.18790181.00028206 4.3758037.00012377 6.56370545-.00044251 5.94167146-.00028724 11.88332278.00559774 17.82498956.01257396 6.20866537.00624565 12.41733118.0068383 18.62599921.00802541 11.08930491.00293289 22.17860147.01015683 33.26790257.01964271 10.06563134.0085646 20.1312612.01480942 30.1968954.01879418.6617994.00026272 1.3235988.00052544 2.00545273.00079613 3.32011064.00130505 6.64022128.0025665 9.96033194.0038119 27.53606846.01045629 55.07212868.02804883 82.60818994.05032361-.99367452 8.51060868-.99367452 8.51060868-2.04434204 12.42628479-.20684669.78122317-.41369339 1.56244634-.62680817 2.36734295-.22534172.82937481-.45068344 1.65874963-.68285369 2.51325702-.23969262.89901189-.47938523 1.79802378-.72634125 2.72427845-.79364853 2.97147003-1.59486832 5.94084128-2.39621735 8.91024304-.5636575 2.10369405-1.12687072 4.20750719-1.68966675 6.31143188-1.50281385 5.61244724-3.01232562 11.22307244-4.52325439 16.83333969-1.24867594 4.64000423-2.49327082 9.28109877-3.73780441 13.92221546-7.2074401 26.8767476-14.46815953 53.73843123-21.82612992 80.57437039-4.04051088 14.74797406-7.95460602 29.52600091-11.80664062 44.32421875-3.06744739 11.78281616-6.17366864 23.55471155-9.32189942 35.31622314-.49160221 1.83714826-.98241865 3.67450698-1.47241211 5.51208496-.67391569 2.52634044-1.35070507 5.05189198-2.02844238 7.57720948-.20047943.7529837-.40095886 1.5059674-.60751343 2.2817688-1.39494695 5.17627696-1.39494695 5.17627696-2.50967407 7.4057312-35.219514.09173472-70.43900365.16212941-105.65861215.20426131-4.16644914.0050023-8.33289804.01017964-12.49934683.01546525-1.24409644.00157386-1.24409644.00157386-2.51332613.00317952-13.39554363.0173628-26.79101796.04887752-40.1865206.0857051-13.76476847.03752465-27.52950088.05964891-41.2943184.0677428-8.4804491.00546399-16.96070228.0226646-25.44109102.05531188-5.83056481.02129052-11.66102967.02750167-17.49163045.02233965-3.35437946-.0025395-6.70814709.00335297-10.06251045.02281639-31.42794757.17328987-58.02764286-5.5464358-81.54014397-27.8518219-17.18080357-17.9435028-24.60469159-42.81288374-24.3125-67.2421875 1.27591169-40.0722774 19.19383483-76.24202625 46.61914063-104.93457032 1.32111794-1.3855855 2.62487709-2.78766003 3.92773437-4.19042968 8.75972242-9.15789162 19.20426791-18.28056002 30.453125-24.2578125h2c-.25910156.64324218-.51820312 1.28648437-.78515625 1.94921875-.40089844 1.00675781-.80179687 2.01351562-1.21484375 3.05078125-.25507324.6388916-.51014648 1.2777832-.77294922 1.93603515-11.40029536 28.84530692-13.94621902 58.34403424-1.84814453 87.3725586 7.78247766 16.64644403 20.55757579 27.16403345 37.62109375 33.69140625 10.34937543 3.41408891 19.98626505 4.15335143 30.82006836 4.20532226 1.27873993.0098996 2.55747986.0197992 3.87496948.02999878 3.48912402.02690502 6.97826137.04799201 10.46743083.06800199 3.65286378.021949 7.30568716.04929385 10.95851827.07605624 6.90939993.04980685 13.81882244.09478995 20.7282663.13802236 7.86944676.04947535 15.73885297.10435512 23.60826045.15967959 16.18079133.11363559 32.36161992.22051435 48.54248631.32291878.13491348-1.19942734.26982697-2.39885468.40882874-3.6346283.43857186-3.49472563 1.11389139-6.81048181 2.0499115-10.21131897.29378036-1.07794327.58756073-2.15588653.89024353-3.26649475.31667129-1.1398082.63334259-2.27961639.95960998-3.45396423.32678238-1.19286118.65356476-2.38572235.99024964-3.61473084 1.04104855-3.79523052 2.08977539-7.58829052 3.13865661-11.38136291.70167057-2.5538995 1.40284757-5.10793466 2.10351563-7.66210938 4.93966138-17.98539414 4.93966138-17.98539414 7.45898437-26.77539062-.84617386.00222061-1.69234772.00444122-2.56416321.00672912-10.91610287.02726261-21.83220498.04517877-32.74833679.05577088-.87592049.00085601-1.75184097.00171203-2.6543045.00259399-33.02168944.0284795-66.01918614-.33428225-99.0331955-1.06509399.865247-6.72382376 2.47660555-13.15083574 4.21875-19.6862793.5247305-1.97666173 1.03608367-3.95646508 1.546875-5.93676758 5.36403865-20.44143584 14.64021994-38.97366915 33.296875-50.31445312 4.81914209-2.63256477 9.60561667-4.73208766 14.9375-6.0625 1.02112019-.25949008 1.02112019-.25949008 2.06286907-.52422238 4.00357843-.64852847 7.91713214-.60992104 11.96638203-.59603214z" fill="#757475" transform="translate(259.029251 206.879745)"/><path d="m0 0c1.14700093-.00085442 2.29400186-.00170885 3.4757604-.00258917 3.82771164-.00164176 7.65537907.0038452 11.48308665.0093183 2.75006131.00083979 5.50012178.00016752 8.2501831-.00044251 5.91266904-.00052312 11.82532699.00260153 17.73799324.00823784 8.54861272.00814373 17.09722011.01073316 25.64583629.01198799 13.87118502.00218601 27.74236414.00883386 41.61354596.01830261 13.47070283.00918579 26.94140405.01626092 40.41210937.02050782.83100726.00026272 1.66201451.00052544 2.51820381.00079613 4.16912016.00130508 8.33824033.00256878 12.50736051.0038119 34.56057456.01035856 69.12114227.0279646 103.68171108.05032361-.14709001 1.42511313-.29741826 2.84989224-.44908429 4.27452564-.08336127.79345882-.16672254 1.58691764-.25260991 2.40442067-.41653128 3.24094079-1.21846873 6.30844349-2.09249526 9.45459861-.26855804.97773376-.26855804.97773376-.5425415 1.97521973-.58564534 2.12577251-1.18097001 4.24869584-1.77655029 6.3717041-.41555919 1.50043285-.83052094 3.00103128-1.24491883 4.50178527-1.0888644 3.93687813-2.1860581 7.87138737-3.2849884 11.8054657-1.1053503 3.96317371-2.20226962 7.9286786-3.3001709 11.8939209-2.16046715 7.79486655-4.32459691 15.58866672-6.51218033 23.37597275-.56259589 2.00708619-1.12088688 4.0153453-1.67931747 6.0235939-.36132658 1.28850234-.72285955 2.57694682-1.08462525 3.86532593-.31893722 1.14209427-.63787445 2.28418854-.96647644 3.46089172-.81404113 2.59257508-.81404113 2.59257508-1.81404113 3.59257508-3.18663599.10386635-6.35187345.14156806-9.53910828.138031-1.52158076.00423192-1.52158076.00423192-3.07390052.00854934-3.42807689.00838901-6.85612166.00968799-10.284208.0111345-2.44718009.00466557-4.89435932.0098087-7.34153748.01539612-5.2879705.01130892-10.57593463.01978148-15.86391258.02611923-8.37797453.01032956-16.75590941.03089964-25.13385963.05311966-2.8685063.00748122-5.73701277.01489495-8.6055193.02228737-1.07564963.00277585-1.07564963.00277585-2.17302957.00560778-8.17262398.02094835-16.34525241.0397601-24.51788363.05764562-1.12094789.00245727-1.12094789.00245727-2.26454119.00496419-12.05807245.02617573-24.11614795.04487621-36.17423664.06162772-12.40092943.01750444-24.80179979.04644703-37.20268193.08488936-7.63362813.02324569-15.26715978.03738055-22.90082357.03932764-5.88055732.00238582-11.76100541.02042222-17.64151832.04386936-2.39184798.00712403-4.78371722.00932804-7.17557335.00589752-50.19864791-.06042618-99.1532021 15.0425579-140.10766601 44.42153359-.6506543.46664062-1.3013086.93328125-1.97167969 1.4140625-20.37432837 14.73175217-39.73223424 31.52107165-55.02832031 51.5859375-.78117188.97582031-1.56234375 1.95164062-2.3671875 2.95703125-21.01194958 26.38038724-35.80070896 56.58961375-45.87890625 88.65234375-.88551308 2.80794819-1.81155816 5.60127463-2.75390625 8.390625-.66 0-1.32 0-2 0-.8009011-3.22694492-1.58888579-6.45692389-2.375-9.6875-.22171875-.89267578-.4434375-1.78535157-.671875-2.70507813-3.19462022-13.20129823-4.36232609-25.89010947-4.328125-39.41992187.00054382-.81186768.00108764-1.62373535.00164794-2.46020508.04261507-13.8918309 1.12416745-27.17782164 4.37335206-40.72729492.20898925-.88461914.41797851-1.76923828.63330078-2.68066407 6.81668912-27.93055392 19.50665282-55.04742651 36.36669922-78.31933593.76054687-1.05316407 1.52109375-2.10632813 2.3046875-3.19140625 14.36789905-19.46378021 30.64877005-37.81990323 49.6953125-52.80859375 1.09328645-.88307744 2.1857003-1.76723606 3.27734375-2.65234375 25.87174082-20.84685093 55.08326435-36.27910921 86.72265625-46.34765625.74427246-.23702637 1.48854492-.47405274 2.25537109-.71826172 19.17254861-5.97835313 39.33326462-9.45722062 59.4188385-9.4019928z" fill="#f08519" transform="translate(244.67421 55.879745)"/></svg>